<?xml version="1.0" encoding="UTF-8" standalone="no" ?>
<!DOCTYPE svg PUBLIC "-//W3C//DTD SVG 1.1//EN" "http://www.w3.org/Graphics/SVG/1.1/DTD/svg11.dtd">
<svg xmlns="http://www.w3.org/2000/svg" xmlns:xlink="http://www.w3.org/1999/xlink" version="1.1" width="128" height="128" viewBox="0 0 128 128" xml:space="preserve">
<desc>Created with Fabric.js 5.3.0</desc>
<defs>
</defs>
<g transform="matrix(3.3450415041 0 0 0.5270779221 64 64)" id="ZXe4N0o5GSlFufih_ezkK"  >
<path style="stroke: rgb(237,198,175); stroke-width: 0; stroke-dasharray: none; stroke-linecap: butt; stroke-dashoffset: 0; stroke-linejoin: miter; stroke-miterlimit: 4; fill: rgb(140,140,140); fill-rule: nonzero; opacity: 1;"  transform=" translate(0, 0)" d="M -13.7987 -2.69163 C -13.7987 -8.8259 -13.01514 -13.7987 -12.04856 -13.7987 L 12.04856 -13.7987 L 12.04856 -13.7987 C 13.01514 -13.7987 13.7987 -8.825890000000001 13.7987 -2.69163 L 13.7987 2.69163 L 13.7987 2.69163 C 13.7987 8.8259 13.01514 13.7987 12.04856 13.7987 L -12.04856 13.7987 L -12.04856 13.7987 C -13.01514 13.7987 -13.7987 8.825890000000001 -13.7987 2.69163 z" stroke-linecap="round" />
</g>
<g transform="matrix(3.3450415041 0 0 0.5270779221 64.0000043447 46.1266233766)" id="FbO2lsyHrvFFcVxnrkN0T"  >
<path style="stroke: rgb(237,198,175); stroke-width: 0; stroke-dasharray: none; stroke-linecap: butt; stroke-dashoffset: 0; stroke-linejoin: miter; stroke-miterlimit: 4; fill: rgb(140,140,140); fill-rule: nonzero; opacity: 1;"  transform=" translate(0, 0)" d="M -13.7987 -2.69163 C -13.7987 -8.8259 -13.01514 -13.7987 -12.04856 -13.7987 L 12.04856 -13.7987 L 12.04856 -13.7987 C 13.01514 -13.7987 13.7987 -8.825890000000001 13.7987 -2.69163 L 13.7987 2.69163 L 13.7987 2.69163 C 13.7987 8.8259 13.01514 13.7987 12.04856 13.7987 L -12.04856 13.7987 L -12.04856 13.7987 C -13.01514 13.7987 -13.7987 8.825890000000001 -13.7987 2.69163 z" stroke-linecap="round" />
</g>
<g transform="matrix(3.3450415041 0 0 0.5270779221 64.0000043447 82.3441558441)" id="lGBah9RGmYYo7Wa2CHD98"  >
<path style="stroke: rgb(237,198,175); stroke-width: 0; stroke-dasharray: none; stroke-linecap: butt; stroke-dashoffset: 0; stroke-linejoin: miter; stroke-miterlimit: 4; fill: rgb(140,140,140); fill-rule: nonzero; opacity: 1;"  transform=" translate(0, 0)" d="M -13.7987 -2.69163 C -13.7987 -8.8259 -13.01514 -13.7987 -12.04856 -13.7987 L 12.04856 -13.7987 L 12.04856 -13.7987 C 13.01514 -13.7987 13.7987 -8.825890000000001 13.7987 -2.69163 L 13.7987 2.69163 L 13.7987 2.69163 C 13.7987 8.8259 13.01514 13.7987 12.04856 13.7987 L -12.04856 13.7987 L -12.04856 13.7987 C -13.01514 13.7987 -13.7987 8.825890000000001 -13.7987 2.69163 z" stroke-linecap="round" />
</g>
</svg>